<?xml version="1.0" encoding="UTF-8"?>
<svg xmlns="http://www.w3.org/2000/svg" xmlns:xlink="http://www.w3.org/1999/xlink" viewBox="0 0 240 240" width="240px" height="240px">
<g id="surface39241703">
<path style=" stroke:none;fill-rule:nonzero;fill:rgb(61.176473%,72.549021%,94.509804%);fill-opacity:1;" d="M 220 120 C 220 175.226562 175.226562 220 120 220 C 64.769531 220 20 175.226562 20 120 C 20 64.769531 64.769531 20 120 20 C 175.226562 20 220 64.769531 220 120 Z M 220 120 "/>
<path style=" stroke:none;fill-rule:nonzero;fill:rgb(24.705882%,43.921569%,67.058825%);fill-opacity:1;" d="M 205 120 C 205 166.945312 166.945312 205 120 205 C 73.054688 205 35 166.945312 35 120 C 35 73.054688 73.054688 35 120 35 C 166.945312 35 205 73.054688 205 120 Z M 205 120 "/>
<path style=" stroke:none;fill-rule:nonzero;fill:rgb(12.156863%,25.490198%,42.352942%);fill-opacity:1;" d="M 170.984375 51.984375 L 154 68.558594 L 154 88.125 L 128.5 115.75 L 128.5 141.25 L 155.964844 141.25 L 169.71875 188.949219 C 191.089844 173.503906 205 148.375 205 120 C 205 92.191406 191.640625 67.496094 170.984375 51.984375 Z M 170.984375 51.984375 "/>
<path style=" stroke:none;fill-rule:nonzero;fill:rgb(12.156863%,25.490198%,42.352942%);fill-opacity:1;" d="M 97.390625 149.75 L 89.160156 137 L 73.25 137 L 54.125 115.75 L 72.929688 115.75 L 98.75 90.25 L 98.75 69 L 82.035156 69 L 66.769531 53.734375 C 47.453125 69.265625 35.078125 93.058594 35 119.746094 L 60.5 145.398438 L 67.363281 186.738281 C 76.816406 194.203125 87.894531 199.703125 99.984375 202.625 L 109.828125 179.5 L 120 174.195312 L 120.054688 149.75 Z M 97.390625 149.75 "/>
</g>
</svg>